<?xml version="1.0" standalone="no"?>
<!DOCTYPE svg PUBLIC "-//W3C//DTD SVG 20010904//EN"
 "http://www.w3.org/TR/2001/REC-SVG-20010904/DTD/svg10.dtd">
<svg version="1.0" xmlns="http://www.w3.org/2000/svg"
 width="258.000000pt" height="222.000000pt" viewBox="0 0 258.000000 222.000000"
 preserveAspectRatio="xMidYMid meet">

<g transform="translate(0.000000,222.000000) scale(0.100000,-0.100000)"
fill="#000000" stroke="none">
<path d="M1153 2129 c-96 -37 -167 -131 -198 -261 -21 -90 -22 -1150 -1 -1249
42 -195 155 -292 341 -292 172 0 283 91 329 270 23 89 24 1185 1 1282 -31 128
-98 212 -202 251 -73 27 -198 27 -270 -1z m171 -240 c56 -26 56 -26 56 -651 0
-526 -1 -576 -18 -608 -31 -63 -99 -64 -139 -3 -17 25 -18 67 -21 571 -3 588
0 642 43 680 29 25 43 27 79 11z"/>
<path d="M2010 2141 c-157 -51 -250 -200 -250 -401 0 -155 56 -286 250 -581
195 -295 224 -373 186 -502 -19 -65 -44 -87 -97 -87 -70 0 -108 74 -113 219
-2 42 -6 83 -10 92 -6 13 -29 17 -107 22 -58 4 -111 2 -126 -4 l-26 -10 6
-117 c15 -290 102 -411 318 -443 140 -20 276 27 344 119 57 77 80 165 79 312
0 117 -2 130 -32 205 -39 99 -103 208 -254 431 -130 192 -158 255 -158 347 0
114 29 167 91 167 51 0 87 -71 97 -194 l7 -81 125 0 125 0 3 63 c6 133 -41
287 -111 360 -59 62 -120 85 -227 89 -52 1 -106 -1 -120 -6z"/>
<path d="M194 2121 c-17 -10 -36 -32 -43 -48 -9 -23 -11 -197 -8 -739 3 -635
5 -714 20 -758 40 -115 118 -201 210 -232 67 -22 177 -22 244 0 92 31 170 117
210 232 15 44 17 121 20 759 3 664 2 712 -14 745 -22 44 -54 60 -118 60 -59 0
-111 -27 -125 -66 -6 -15 -10 -291 -10 -715 0 -579 -2 -695 -14 -724 -28 -65
-100 -72 -136 -12 -19 31 -20 54 -20 727 0 642 -1 698 -18 730 -9 19 -28 40
-42 47 -38 19 -120 16 -156 -6z"/>
<path d="M170 130 l0 -80 1140 0 1141 0 -3 78 -3 77 -1137 3 -1138 2 0 -80z"/>
</g>
</svg>
